<?xml version="1.0" standalone="no"?>
<!DOCTYPE svg PUBLIC "-//W3C//DTD SVG 20010904//EN"
 "http://www.w3.org/TR/2001/REC-SVG-20010904/DTD/svg10.dtd">
<svg version="1.0" xmlns="http://www.w3.org/2000/svg"
 width="676.000000pt" height="676.000000pt" viewBox="0 0 676.000000 676.000000"
 preserveAspectRatio="xMidYMid meet">
<metadata>
Created by potrace 1.11, written by Peter Selinger 2001-2013
</metadata>
<g transform="translate(0.000000,676.000000) scale(0.100000,-0.100000)"
fill="#000000" stroke="none">
<path d="M1690 6749 c-19 -4 -48 -10 -65 -14 -16 -3 -73 -27 -125 -53 -52 -26
-98 -46 -102 -44 -5 1 -8 -2 -8 -6 0 -4 -33 -23 -72 -42 -40 -19 -76 -39 -80
-45 -4 -5 -8 -7 -8 -4 0 12 -283 -141 -335 -181 -74 -56 -90 -71 -114 -110
-26 -43 -27 -74 -2 -99 37 -37 128 -17 300 67 64 31 121 57 126 57 9 0 9 -22
-1 -90 -1 -11 -3 -20 -4 -20 0 0 -3 -18 -5 -40 -4 -48 -13 -112 -19 -141 -2
-12 -7 -45 -11 -75 -3 -30 -8 -61 -10 -69 -3 -14 -12 -73 -20 -140 -2 -14 -6
-43 -10 -65 -12 -75 -64 -390 -70 -425 -3 -19 -8 -47 -11 -62 -6 -31 -14 -80
-19 -125 -2 -18 -6 -36 -8 -40 -3 -5 -8 -27 -11 -49 -4 -22 -9 -51 -12 -64 -2
-14 -11 -59 -19 -100 -8 -41 -28 -142 -45 -225 -17 -82 -33 -161 -36 -175 -3
-14 -9 -41 -14 -60 -5 -19 -12 -51 -15 -70 -3 -19 -8 -43 -11 -52 -5 -17 -12
-46 -20 -88 -6 -29 -56 -228 -79 -315 -9 -33 -18 -69 -20 -79 -3 -10 -15 -58
-29 -105 -13 -47 -27 -99 -31 -116 -5 -16 -9 -34 -11 -40 -1 -5 -12 -39 -24
-75 -12 -36 -23 -72 -25 -80 -5 -26 -135 -413 -145 -435 -5 -11 -29 -72 -54
-135 -49 -129 -125 -298 -197 -442 -27 -54 -49 -104 -49 -113 0 -8 9 -24 21
-36 34 -34 136 -17 279 48 30 14 57 29 60 32 3 4 23 18 45 31 86 51 140 122
229 304 86 173 180 389 231 526 15 41 32 86 38 100 6 14 11 27 12 30 0 3 17
55 37 115 55 163 135 452 184 658 20 86 96 335 155 507 32 96 61 182 63 190 5
20 35 98 52 137 8 18 22 52 30 75 28 81 138 323 207 458 205 399 402 660 656
872 56 47 225 125 309 143 12 3 32 7 45 10 66 15 227 20 290 10 94 -16 131
-26 142 -36 5 -5 15 -9 23 -9 21 0 134 -57 167 -85 58 -49 88 -81 124 -135 35
-51 77 -140 66 -140 -2 0 0 -12 6 -27 20 -51 13 -194 -15 -313 -25 -105 -139
-253 -261 -337 -22 -16 -41 -31 -43 -35 -2 -5 -7 -8 -12 -8 -4 0 -37 -17 -71
-38 -90 -54 -216 -109 -424 -187 -99 -36 -193 -72 -210 -79 -16 -7 -43 -18
-60 -24 -134 -48 -266 -96 -295 -109 -71 -30 -193 -94 -207 -108 -8 -8 -19
-15 -24 -15 -5 0 -36 -26 -69 -59 -71 -71 -88 -114 -56 -149 18 -21 27 -23 71
-18 276 30 403 28 580 -8 75 -15 188 -49 245 -73 73 -31 200 -98 224 -117 13
-12 33 -26 43 -32 16 -10 13 -13 -26 -24 -74 -20 -269 -98 -360 -144 -297
-149 -504 -311 -659 -515 -58 -78 -172 -290 -172 -322 0 -10 -4 -20 -8 -23 -4
-2 -9 -20 -10 -39 -5 -68 67 -91 176 -56 59 18 170 77 226 119 105 79 140 122
176 220 84 228 193 339 417 424 56 21 213 64 258 72 21 3 47 8 59 10 11 3 41
8 66 11 95 12 93 13 122 -47 22 -47 57 -140 64 -175 26 -122 26 -279 0 -420
-3 -16 -8 -52 -12 -79 -29 -223 -217 -462 -474 -603 -91 -50 -280 -113 -380
-127 -19 -3 -53 -8 -75 -11 -99 -15 -283 -20 -365 -10 -89 11 -117 16 -148 24
-18 5 -33 9 -35 9 -1 0 -25 7 -53 15 -135 40 -225 98 -385 247 -102 96 -93 90
-143 85 -88 -9 -218 -65 -346 -150 -122 -82 -164 -171 -107 -230 12 -12 38
-39 57 -61 35 -39 133 -124 143 -124 3 0 35 -18 71 -40 36 -22 68 -40 71 -40
3 0 24 -9 48 -19 67 -31 182 -66 287 -87 51 -10 420 -12 426 -2 3 5 9 6 14 3
7 -5 116 10 225 29 81 15 355 89 376 101 5 4 17 8 26 10 80 15 402 167 543
255 44 27 84 50 89 50 5 0 12 6 15 13 6 12 -1 -40 -10 -76 -9 -39 -15 -64 -20
-97 -3 -19 -8 -38 -10 -41 -2 -3 -6 -21 -9 -39 -3 -19 -22 -97 -41 -174 -19
-77 -36 -150 -39 -161 -12 -58 -36 -152 -42 -165 -3 -8 -7 -20 -8 -25 -2 -6
-12 -43 -23 -83 -11 -39 -18 -72 -15 -72 3 0 1 -6 -4 -13 -5 -6 -18 -41 -28
-77 -42 -152 -188 -593 -255 -770 -17 -47 -33 -89 -34 -95 -2 -5 -7 -19 -11
-30 -4 -11 -21 -54 -36 -95 -15 -41 -34 -88 -40 -105 -7 -16 -13 -33 -13 -37
-1 -3 -4 -10 -8 -14 -5 -4 -8 -16 -8 -27 0 -11 -9 -21 -20 -24 -67 -18 -307
-160 -347 -206 -51 -59 -62 -108 -32 -138 21 -21 22 -21 542 -16 287 3 536 7
552 10 17 2 57 8 90 11 33 4 76 10 95 12 52 6 264 45 271 49 3 2 21 7 40 10
83 15 403 104 429 120 6 3 19 8 31 10 108 21 608 245 761 342 21 12 41 23 44
23 4 0 21 10 38 23 17 13 38 26 46 29 17 6 258 165 276 182 6 6 22 18 34 26
13 8 31 22 40 30 8 8 40 34 70 57 144 110 360 325 480 479 17 22 36 46 43 54
125 158 235 340 331 550 46 101 108 299 131 420 3 14 7 36 10 50 9 41 19 123
20 158 0 17 3 32 6 32 8 0 4 396 -4 430 -3 14 -8 43 -12 65 -39 268 -204 550
-431 736 -61 50 -254 179 -268 179 -3 0 -41 17 -84 38 -71 35 -234 99 -239 95
-2 -2 -23 6 -48 17 -25 11 -45 17 -45 15 0 -3 -10 -1 -23 4 -27 10 -201 47
-262 56 -23 3 -52 8 -65 10 -14 3 -50 8 -80 11 -30 3 -67 7 -81 9 -67 12 -299
17 -699 18 l-435 0 -35 44 c-45 56 -154 161 -202 193 -21 14 -38 28 -38 33 0
4 -4 7 -10 7 -5 0 -33 15 -62 33 -95 61 -354 157 -420 157 -17 0 -18 3 -8 15
7 8 18 15 24 15 32 0 413 213 506 282 14 10 66 49 115 85 275 202 431 388 500
598 74 222 59 441 -40 605 -33 54 -121 145 -180 186 -93 63 -220 113 -335 132
-80 13 -419 6 -450 -9 -3 -1 -9 -3 -15 -4 -14 -2 -99 -19 -105 -20 -3 -1 -25
-7 -50 -14 -25 -7 -49 -14 -55 -15 -12 -3 -84 -25 -105 -33 -8 -4 -17 -7 -20
-8 -16 -6 -49 -19 -77 -31 -17 -8 -34 -14 -37 -14 -24 0 -328 -165 -334 -182
-2 -4 -8 -8 -13 -8 -5 0 -33 -17 -62 -37 -28 -20 -65 -46 -82 -57 -16 -12 -32
-23 -35 -26 -4 -4 -69 -57 -140 -115 -46 -38 -247 -240 -300 -302 -29 -35 -57
-63 -62 -63 -5 0 -7 4 -4 8 3 5 8 24 11 43 3 19 7 45 10 59 5 27 10 61 20 130
4 25 9 56 11 70 2 14 5 39 8 55 2 17 7 50 11 75 4 25 9 56 10 70 4 34 16 121
21 144 2 10 6 44 10 75 3 31 8 65 10 76 14 68 13 94 -4 114 -20 24 -53 30
-102 20z m2665 -2774 c165 -12 265 -26 440 -60 147 -29 366 -97 474 -147 64
-31 231 -125 241 -137 3 -3 37 -32 76 -63 79 -64 224 -215 224 -234 0 -3 11
-20 24 -37 46 -61 127 -244 141 -319 5 -23 11 -51 21 -98 25 -115 25 -426 0
-595 -16 -104 -65 -303 -86 -350 -5 -11 -23 -54 -39 -95 -60 -153 -156 -320
-274 -474 -104 -138 -263 -297 -387 -389 -60 -45 -73 -55 -95 -75 -8 -7 -15
-10 -15 -5 0 4 -4 4 -8 -2 -21 -29 -267 -175 -391 -231 -85 -40 -268 -114
-280 -114 -5 0 -22 -5 -38 -12 -34 -14 -31 -13 -68 -22 -16 -5 -49 -14 -72
-22 -23 -7 -52 -16 -65 -18 -13 -3 -63 -14 -113 -25 -49 -11 -106 -22 -125
-25 -19 -3 -44 -7 -55 -10 -11 -2 -47 -7 -80 -11 -32 -4 -67 -9 -77 -10 -96
-19 -658 -26 -658 -9 0 7 17 54 38 105 22 52 62 153 90 224 45 116 69 181 159
430 13 39 27 77 30 85 8 21 9 21 18 55 4 17 12 36 18 43 5 6 7 12 4 12 -3 0 7
35 23 78 15 42 28 79 28 82 0 3 3 12 6 20 2 8 17 56 31 105 15 50 33 108 40
130 13 39 47 158 47 162 -1 2 4 17 9 35 17 53 49 171 55 198 3 14 14 54 24 90
10 36 21 76 24 90 3 14 12 52 20 86 8 34 17 72 20 85 3 13 14 62 25 109 11 47
22 96 25 110 2 14 16 81 31 150 31 154 30 149 55 295 12 66 23 134 26 150 3
17 7 39 8 50 6 44 18 114 31 180 8 39 17 106 20 150 5 70 10 122 20 225 2 14
3 34 4 46 1 19 6 20 134 18 72 -1 173 -5 222 -9z"/>
</g>
</svg>
